<svg xmlns="http://www.w3.org/2000/svg" xmlns:xlink="http://www.w3.org/1999/xlink" enable-background="new 0 0 3000 3000" viewBox="0 0 3000 3000"><switch><g><defs><rect id="a" width="3000" height="3000"/></defs><clipPath id="b"><use overflow="visible" xlink:href="#a"/></clipPath><g clip-path="url(#b)"><path fill="#ebebeb" d="M2297.472,2437.412c19.424,11.214,19.526,29.366,0.263,40.561l-691.821,402.042
							c-19.261,11.194-50.599,11.194-70.023-0.021l-1279.96-738.985c-19.389-11.194-19.491-29.346-0.23-40.54l691.821-402.042
							c19.263-11.195,50.601-11.195,69.99,0L2297.472,2437.412z"/><path fill="#ebebeb" d="M423.581,2426.669c76.411,43.797,273.098,172.917,273.098,172.917l376.584,122.182
							l439.498-29.346l-9.775-226.559c0,0-363.456,29.31-410.863,50.774c-36.039-20.366-292.664-91.819-329.288-91.798
							c-29.871-35.921-129.909-74.74-174.606-97.005c-55.4-27.597-132.92-31.937-169.644,17.885c0,0-7.031,9.538-9.374,12.718
							C392.65,2380.905,399.364,2412.788,423.581,2426.669z"/><path fill="#ebebeb" d="M669.991,2498.307c0,0,90.735,200.393,127.192,263.916
							c8.777,15.294,23.742,26.071,39.978,32.95c0,0,201.525,85.395,268.699,113.86c18.517,7.847,38.537,11.515,58.633,10.745
							c101.411-3.889,405.646-15.557,405.646-15.557l-23.119-266.708l-390.333,78.694l-238.7-85.654l-64.67-113.299
							c-25.646-56.121-81.857-107.706-140.383-88.159l-15.42,5.15C671.041,2443.086,658.181,2473.019,669.991,2498.307z"/><path fill="#ebebeb" d="M2911.258,2542.389c-4.897-1.885-314.579-80.444-319.169-82.842
							c-49.879-26.057-96.608-34.564-129.131-89.62c-41.033-69.462-63.839-107.31-156.593-194.412
							c-62.268-58.473-358.686-184.334-482.007-188.05c-66.134-1.993-254.737-38.342-296.707-54.265
							c-53.486-20.292-133.671-89.316-185.455-103.828c-52.705-14.769-151.704-49.617-183.101,36.735
							c-20.559,56.545,49.941,119.563,110.796,146.253c52.37,22.969,145.781,85.168,185.561,101.886
							c51.248,21.537,186.013,105.995,232.308,123.959c-35.309,14.563-176.743,94.299-196.745,275.608
							c-14.596,132.305-14.352,238.8,30.783,352.051c6.484,16.269,25.318,73.753,41.16,78.903
							c100.654,32.722,530.698,92.202,721.676,39.336c71.351-19.751,115.66-7.134,186.396-6.551
							c6.524,0.054,352.754,77.887,359.244,78.117C2855.362,2964.001,2890.97,2632.234,2911.258,2542.389z"/><path fill="#ebebeb" d="M1511.783 2761.672c-77.928-42.372-132.596 14.274-154.538 20.846-22.958-18.106-186.255-73.827-212.033-77.403-11.463-21.092-32.584-56.787-44.728-78.539-33.436-59.889-90.311-101.244-154.518-77.114l-2.887 1.085c-20.313 7.634-29.549 31.174-19.848 50.584 0 0 77.037 160.863 109.759 210.332 8.971 13.563 23.536 22.442 38.509 28.786l236.682 90.428c13.88 5.882 58.299 7.785 73.366 7.313 0 0 117.57-3.39 179.758 6.575C1635.279 2967.124 1553.399 2784.299 1511.783 2761.672zM3000 2453.028l-399.675-93.338c-143.946 193.39-219.314 525.904-169.127 724.202L3000 3216.726V2453.028z"/><path fill="#ebebeb" d="M3000,2393.078l-240.504-56.166c-146.619,181.746-277.796,664.102-204.024,873.644
							L3000,3314.368V2393.078z"/></g><path fill="#a8a0a0" d="M545.337,1642.215c53.08,34.616,186.24,132.327,236.658,169.492
									c13.167,9.706,27.646,17.441,43.031,22.997c77.414,27.955,281.691,106.056,357.08,134.939
									c18.935,7.255,38.729,11.963,58.902,14.016c123.094,12.528,492.378,50.111,492.378,50.111l19.565-270.046
									c0,0-490.2-20.182-526.074-8.043c-35.225-33.691-333.271-116.224-356.369-112.04
									c-32.849-33.622-152.038-86.242-152.038-86.242c-55.362-37.255-134.205-58.144-171.379-2.726
									c0,0-11.271,16.803-15.028,22.404C517.561,1598.694,523.533,1627.995,545.337,1642.215z"/><path fill="#c49e77" d="M423.581,1926.669c76.411,43.797,273.098,172.917,273.098,172.917l376.584,122.182
									l439.498-29.346l-9.775-226.559c0,0-363.456,29.31-410.863,50.774c-36.039-20.366-292.664-91.819-329.288-91.798
									c-29.871-35.921-129.909-74.74-174.606-97.005c-55.4-27.597-132.92-31.936-169.644,17.885c0,0-7.031,9.538-9.374,12.718
									C392.65,1880.905,399.364,1912.788,423.581,1926.669z"/><path fill="#d4a981" d="M669.991,1998.307c0,0,90.735,200.393,127.192,263.916
									c8.777,15.294,23.742,26.071,39.978,32.95c0,0,201.525,85.395,268.699,113.86c18.517,7.847,38.537,11.515,58.633,10.745
									c101.411-3.889,405.646-15.557,405.646-15.557l-23.119-266.708l-390.333,78.694l-238.7-85.654l-64.67-113.299
									c-25.646-56.121-81.857-107.706-140.383-88.159l-15.42,5.15C671.041,1943.086,658.181,1973.019,669.991,1998.307z"/><path fill="#e0b389" d="M2911.258,2042.389c-4.897-1.884-314.579-80.444-319.169-82.842
									c-49.879-26.057-96.608-34.564-129.131-89.62c-41.033-69.462-63.839-107.31-156.593-194.412
									c-62.268-58.473-358.686-184.334-482.007-188.05c-66.134-1.993-254.737-38.342-296.707-54.265
									c-53.486-20.292-133.671-89.316-185.455-103.828c-52.705-14.769-151.704-49.617-183.101,36.735
									c-20.559,56.545,49.941,119.563,110.796,146.253c52.37,22.969,145.781,85.168,185.561,101.886
									c51.248,21.537,186.013,105.995,232.308,123.959c-35.309,14.563-176.743,94.299-196.745,275.608
									c-14.596,132.305-14.352,238.8,30.783,352.051c6.484,16.269,25.318,73.753,41.16,78.903
									c100.654,32.722,530.698,92.202,721.676,39.336c71.351-19.751,115.66-7.134,186.396-6.551
									c6.524,0.054,352.754,77.887,359.244,78.117C2855.362,2464.001,2890.97,2132.234,2911.258,2042.389z"/><path fill="#e6dbda" d="M2519.526,1924.76c-92.792,160.581-146.058,378.273-138.02,548.552
									c27.694,0.914,55.562,3.961,89.522,4.241c6.524,0.054,352.754,77.887,359.244,78.117
									c25.089-91.669,60.698-423.436,80.985-513.281c-4.897-1.884-314.579-80.444-319.169-82.841
									C2566.583,1946.223,2541.906,1937.477,2519.526,1924.76z"/><path fill="#dbaf86" d="M1511.783,2261.672c-77.928-42.372-132.596,14.274-154.538,20.846
									c-22.958-18.106-186.255-73.827-212.033-77.403c-11.463-21.092-32.584-56.787-44.728-78.539
									c-33.436-59.889-90.311-101.244-154.518-77.114l-2.887,1.085c-20.313,7.634-29.549,31.174-19.848,50.584
									c0,0,77.037,160.863,109.759,210.332c8.971,13.563,23.536,22.442,38.509,28.786l236.682,90.428
									c13.88,5.882,58.299,7.785,73.366,7.313c0,0,117.57-3.39,179.758,6.575
									C1635.279,2467.124,1553.399,2284.299,1511.783,2261.672z"/><path fill="#c79f7a" d="M2370.555 2063.347c0 0-2.863.601-8.229 1.729-2.747.383-6.21.675-10.322 1.058-4.083.292-8.65.364-13.865.483-5.172-.016-10.878-.178-17.125-.325-6.199-.42-12.903-.874-20.065-1.359-14.27-1.328-30.37-3.043-47.756-5.79-17.438-2.528-36.179-5.985-55.907-10.082-19.765-3.94-40.399-8.984-61.626-14.615-21.158-5.885-42.875-12.484-64.714-19.876-21.879-7.254-44-14.926-65.984-22.966-22.012-7.957-43.848-16.408-65.201-25.072-21.295-8.821-42.163-17.717-62.025-27.103-4.97-2.332-9.898-4.644-14.78-6.935-4.827-2.414-9.607-4.805-14.337-7.171-9.512-4.605-18.587-9.614-27.431-14.434-8.906-4.694-17.219-9.964-25.437-14.673-8.12-4.904-15.758-10.009-23.19-14.705-7.188-5.113-14.157-9.869-20.592-14.67-6.259-5.063-12.401-9.566-17.773-14.322-5.261-4.893-10.442-9.152-14.741-13.646-4.22-4.577-8.203-8.658-11.564-12.556-3.119-4.112-5.903-7.783-8.327-10.977-1.275-1.542-2.239-3.129-3.052-4.633-.85-1.474-1.622-2.813-2.313-4.012-2.752-4.783-4.22-7.334-4.22-7.334l2.132-1.101c0 0 1.58 2.409 4.542 6.925.737 1.126 1.561 2.383 2.467 3.767.866 1.409 1.886 2.894 3.229 4.336 2.537 2.973 5.453 6.39 8.719 10.217 3.499 3.617 7.647 7.379 11.983 11.605 4.398 4.17 9.716 8.111 15.069 12.626 5.474 4.387 11.752 8.523 18.103 13.168 6.548 4.399 13.641 8.739 20.922 13.399 7.558 4.265 15.294 8.904 23.523 13.334 8.343 4.245 16.737 9.01 25.763 13.21 8.976 4.285 18.096 8.854 27.665 13.059 4.755 2.153 9.562 4.33 14.414 6.528 4.91 2.076 9.869 4.173 14.867 6.286 19.966 8.509 40.948 16.51 62.332 24.416 21.452 7.752 43.369 15.277 65.453 22.307 11.065 3.448 22.101 6.966 33.192 10.171 11.044 3.348 22.105 6.481 33.118 9.452 22.027 5.874 43.704 11.655 64.682 17.249 20.961 5.604 41.224 11.021 60.439 16.157 9.617 2.527 18.969 5.03 28.059 7.213 9.049 2.412 17.814 4.618 26.251 6.629 16.86 4.135 32.341 7.743 46.116 10.749 13.769 3 25.82 5.288 35.778 6.98 4.958.64 9.464 1.479 13.291 1.906 3.848.374 7.122.692 9.777.95 5.494.043 8.425.066 8.425.066L2370.555 2063.347zM1541.488 2408.376c0 0-.531-2.615-1.267-7.194-.239-2.321-1.048-5.011-1.717-8.054-.611-3.039-1.598-6.425-2.711-10.14-.965-3.719-2.449-7.639-3.831-11.808-1.259-4.198-3.363-8.405-4.904-12.916-1.89-4.407-3.883-8.934-5.991-13.491-2.13-4.554-4.309-9.167-6.828-13.61-2.207-4.609-4.868-8.958-7.334-13.335-2.736-4.188-5.062-8.589-7.818-12.479-2.711-3.928-5.236-7.806-7.941-11.238-2.554-3.589-5.32-6.607-7.725-9.623-2.549-2.828-5.023-5.308-7.19-7.59-2.372-2.052-4.439-3.842-6.142-5.315-3.711-2.502-5.935-4.113-5.935-4.113s2.515.623 7.099 2.03c2.16.916 4.734 2.182 7.709 3.709 2.763 1.754 5.983 3.731 9.172 6.257 3.083 2.607 6.651 5.319 9.756 8.755 1.607 1.672 3.347 3.337 4.97 5.154 1.613 1.822 3.133 3.79 4.75 5.738 1.653 1.93 3.124 4.027 4.649 6.132 1.521 2.106 3.113 4.216 4.488 6.479 2.722 4.538 5.666 9.058 8.099 13.856 2.523 4.753 4.696 9.674 6.807 14.526 2.173 4.825 3.644 9.861 5.32 14.6 1.364 4.87 2.825 9.507 3.587 14.1.951 4.531 1.694 8.832 1.965 12.887.186 2.005.364 3.927.534 5.754-.002 1.864-.004 3.632-.006 5.294-.002 3.307-.055 6.143-.46 8.42C1541.96 2405.751 1541.488 2408.376 1541.488 2408.376zM1737.713 1732.027c0 0 3.382 1.326 9.3 3.647 2.959 1.16 6.54 2.629 10.707 3.979 4.19 1.336 8.728 3.215 13.973 4.566 5.201 1.439 10.754 3.214 16.8 4.43 2.995.685 6.07 1.388 9.215 2.107 3.169.569 6.407 1.15 9.7 1.741 3.273.668 6.651 1.047 10.06 1.449 3.415.353 6.832.971 10.331 1.119 3.483.223 6.994.448 10.518.674 3.525.138 7.071.078 10.604.13 3.533.085 7.066-.155 10.577-.36 3.511-.211 7.003-.313 10.448-.83 3.441-.405 6.854-.807 10.225-1.205 3.351-.573 6.671-.987 9.932-1.436 6.538-.881 12.859-1.732 18.852-2.54 5.981-.995 11.714-1.697 16.966-2.68 2.624-.489 5.175-.851 7.608-1.202 2.412-.433 4.674-.947 6.855-1.274 4.359-.744 8.16-1.393 11.291-1.927 6.285-1.12 10.03-1.509 10.03-1.509l.586 1.488c0 0-3.055 2.129-8.672 5.416-2.78 1.721-6.29 3.488-10.375 5.435-4.067 1.995-8.745 4.068-14.001 5.93-5.187 2.105-11.005 3.764-17.188 5.48-3.063.99-6.326 1.505-9.622 2.213-3.301.697-6.691 1.317-10.181 1.691-3.492.336-7.037.721-10.636.956-3.611.124-7.273.094-10.948.128-3.674.104-7.385-.197-11.095-.303-3.712-.14-7.433-.249-11.139-.688-3.706-.358-7.415-.609-11.087-1.059-3.658-.54-7.302-1.077-10.917-1.61-3.619-.461-7.135-1.39-10.641-2.051-3.499-.711-6.953-1.396-10.285-2.363-3.342-.891-6.628-1.766-9.845-2.624-3.185-.956-6.261-2.024-9.256-3.04-6.034-1.898-11.514-4.307-16.625-6.324-5.138-1.923-9.632-4.351-13.704-6.147-4.094-1.809-7.468-3.66-10.253-5.196-5.589-3.031-8.782-4.762-8.782-4.762L1737.713 1732.027zM2183.773 2184.362c0 0-2.239-.729-6.437-2.094-4.206-1.317-10.277-3.656-18.133-5.801-7.769-2.374-17.373-4.846-28.348-7.597-5.557-1.143-11.369-2.68-17.591-3.908-6.254-1.098-12.75-2.541-19.615-3.619-6.868-1.063-13.977-2.351-21.427-3.133-3.706-.487-7.475-.981-11.302-1.484-3.844-.368-7.746-.742-11.701-1.121-7.893-.867-16.066-1.152-24.368-1.847-8.34-.209-16.832-.969-25.503-.956-17.324-.778-35.254-.215-53.479.395-18.229.8-36.684 2.781-55.08 5.266-18.345 2.82-36.606 6.292-54.386 10.613-17.718 4.509-35.104 9.332-51.521 15.223-8.278 2.75-16.22 5.994-24.068 8.98-7.702 3.329-15.38 6.295-22.593 9.754-3.634 1.675-7.219 3.328-10.75 4.956-3.467 1.76-6.881 3.494-10.238 5.198-6.786 3.292-13.028 7.04-19.162 10.402-6.101 3.421-11.7 7.106-17.169 10.395-5.357 3.457-10.312 6.93-15.044 10.093-9.213 6.666-17.181 12.603-23.406 17.909-6.422 5.08-11.064 9.533-14.337 12.454-3.252 2.945-4.988 4.516-4.988 4.516l-1.127-1.134c0 0 1.673-1.651 4.811-4.745 3.16-3.072 7.642-7.753 13.88-13.136 6.043-5.61 13.804-11.928 22.819-19.054 4.632-3.392 9.49-7.114 14.754-10.838 5.374-3.554 10.889-7.526 16.908-11.249 6.052-3.664 12.225-7.733 18.947-11.358 3.33-1.873 6.716-3.777 10.154-5.711 3.508-1.803 7.07-3.634 10.682-5.489 14.444-7.447 30.194-14.264 46.736-20.65 16.505-6.522 34.021-11.997 51.928-17.166 17.966-4.98 36.466-9.117 55.106-12.593 37.323-6.577 75.298-10.369 110.999-9.691 17.834.392 35.069 1.728 51.261 4.091 16.227 2.072 31.4 5.224 45.258 8.578 13.868 3.351 26.34 7.313 37.269 11.091 10.865 3.989 20.224 7.685 27.735 11.32 7.615 3.361 13.293 6.366 17.188 8.465 3.889 2.087 5.963 3.201 5.963 3.201L2183.773 2184.362z"/><path fill="#d9d9d9" d="M2319.68,2082.368c13.372-7.77,21.029-19.339,21.012-31.745
								c-0.016-12.461-7.783-24.087-21.305-31.891l-1156.469-661.75c-1.356,2.895-2.652,5.899-3.825,9.125
								c-20.56,56.545,49.941,119.563,110.796,146.253c52.37,22.969,145.781,85.168,185.561,101.886
								c51.248,21.537,186.013,105.995,232.308,123.959c-32.047,13.218-151.504,80.134-188.259,227.942
								c-37.069,3.043-362.679,30.252-407.376,50.489c-36.039-20.366-292.665-91.818-329.288-91.798
								c-29.871-35.921-129.909-74.74-174.606-97.005c-53.975-26.888-128.931-31.675-166.714,14.17l715.424,413.05l51.518,12.472
								L1438.038,2437c36.132,0.49,93.555,2.804,123.265,7.565c1.7,0.519,3.291,0.893,4.829,1.199
								c17.724,5.497,63.126,14.857,95.977,21.112L2319.68,2082.368z"/><path fill="#d4d4d4" d="M2297.735,1977.973l-691.821,402.042c-19.262,11.194-50.599,11.194-70.023-0.021
											l-1279.96-738.985c-9.757-5.633-14.63-13.029-14.609-20.412l-0.244,85.954c-0.021,7.384,4.852,14.779,14.609,20.412
											l1279.96,738.985c19.424,11.214,50.761,11.214,70.023,0.021l691.821-402.042c9.565-5.559,14.356-12.833,14.376-20.122
											l0.244-85.954C2312.09,1965.14,2307.3,1972.414,2297.735,1977.973z"/><path fill="#f2f2f2" d="M965.965 2052.795l-2.887 1.085c-20.313 7.634-29.549 31.174-19.848 50.584 0 0 5.042 10.529 13.085 27.007l255.473 147.497c-4.325-12.658-10.212-23.087-18.234-28.907-11.979-13.27-26.275-34.846-28.343-41.613-9.407-17.309-28.783-46.605-43.608-67.643l-153.407-88.57C967.452 2052.425 966.711 2052.588 965.965 2052.795zM926.922 2114.5l-53.605-93.913c-5.533-12.108-12.496-24.001-20.591-35.018l-99.041-57.181c-6.854.423-13.785 1.714-20.752 4.04l-15.421 5.15c-17.541 5.858-29.047 20.989-31.417 37.881L926.922 2114.5z"/><path fill="#1f1f1f" d="M841.949,1326.152c3.601,2.079,3.621,5.461,0.042,7.541
										c-3.545,2.06-9.383,2.06-12.984-0.019c-3.602-2.08-3.587-5.442-0.042-7.502
										C832.543,1324.092,838.348,1324.072,841.949,1326.152z"/><path fill="#f0f0f0" d="M2297.472,1937.412c19.424,11.214,19.526,29.366,0.263,40.561l-691.821,402.042
										c-19.261,11.194-50.599,11.194-70.023-0.021l-1279.96-738.985c-19.389-11.194-19.491-29.346-0.23-40.54l691.821-402.042
										c19.263-11.195,50.601-11.195,69.99,0L2297.472,1937.412z M1449.292,2284.204l682.523-396.639l-1085.03-626.442
										l-682.523,396.639L1449.292,2284.204L1449.292,2284.204z M1826.631,2179.956l126.446-73.482
										c19.229-11.174,19.128-29.325-0.228-40.501c-19.322-11.155-50.692-11.174-69.921,0l-126.446,73.482
										c-19.23,11.175-19.094,29.345,0.228,40.501C1776.066,2191.131,1807.4,2191.131,1826.631,2179.956L1826.631,2179.956z
										 M767.356,1354.563L524.665,1495.6c-7.09,4.12-7.052,10.768,0.084,14.888c7.136,4.12,18.646,4.139,25.736,0.019
										l242.691-141.037c7.09-4.12,7.018-10.786-0.118-14.906C785.921,1350.444,774.446,1350.443,767.356,1354.563
										L767.356,1354.563z M316.27,1631.642c13.194,7.618,34.534,7.618,47.643,0c13.11-7.619,13.041-19.98-0.154-27.598
										c-13.196-7.619-34.534-7.617-47.644,0.001C303.006,1611.664,303.074,1624.024,316.27,1631.642L316.27,1631.642z
										 M841.95,1326.15c-3.602-2.079-9.407-2.06-12.986,0.019c-3.546,2.06-3.559,5.423,0.042,7.503
										c3.602,2.08,9.44,2.079,12.986,0.019C845.571,1331.612,845.552,1328.23,841.95,1326.15L841.95,1326.15z"/><path fill="#bfbfbf" d="M793.057,1354.565c7.136,4.12,7.207,10.786,0.117,14.906l-242.69,141.036
										c-7.09,4.12-18.598,4.101-25.734-0.019c-7.136-4.12-7.173-10.767-0.084-14.887l242.691-141.036
										C774.446,1350.445,785.92,1350.445,793.057,1354.565z"/><path fill="#1f1f1f" d="M344.763,1615.085c2.659,1.535,2.639,4.003,0.031,5.519c-2.642,1.535-6.869,1.535-9.528,0
										c-2.626-1.516-2.673-3.984-0.031-5.519C337.843,1613.569,342.138,1613.569,344.763,1615.085z"/><path fill="#878787" d="M363.759,1604.045c13.194,7.618,13.264,19.979,0.154,27.598
										c-13.108,7.618-34.449,7.618-47.643,0c-13.196-7.619-13.264-19.979-0.155-27.596
										C329.225,1596.427,350.563,1596.426,363.759,1604.045z M335.265,1620.604c2.659,1.535,6.887,1.535,9.528,0
										c2.609-1.516,2.628-3.984-0.031-5.519c-2.626-1.516-6.92-1.516-9.529,0C332.593,1616.62,332.639,1619.088,335.265,1620.604
										L335.265,1620.604z"/><path fill="#c9c9c9" d="M1952.849,2065.973c19.356,11.175,19.457,29.326,0.228,40.501l-126.446,73.482
										c-19.23,11.176-50.564,11.176-69.921,0c-19.322-11.155-19.458-29.325-0.228-40.501l126.446-73.482
										C1902.156,2054.799,1933.527,2054.817,1952.849,2065.973z M1815.893,2173.756l126.446-73.482
										c13.342-7.754,13.273-20.347-0.158-28.102c-13.431-7.755-35.173-7.754-48.515,0l-126.446,73.482
										c-13.344,7.755-13.273,20.347,0.158,28.102C1780.809,2181.511,1802.549,2181.511,1815.893,2173.756L1815.893,2173.756z"/><path fill="#f5f5f5" d="M1942.18,2072.174c13.431,7.754,13.502,20.348,0.158,28.102l-126.445,73.482
										c-13.344,7.754-35.084,7.755-48.515,0c-13.431-7.754-13.502-20.347-0.158-28.102l126.445-73.482
										C1907.008,2064.42,1928.75,2064.419,1942.18,2072.174z"/><polygon fill="#4bb9cf" points="1449.292 2284.205 364.262 1657.762 1046.785 1261.123 2131.815 1887.566"/><path fill="#e0b389" d="M1173.554,2246.728c-11.979-13.27-26.275-34.846-28.343-41.613
								c-11.463-21.092-37.743-60.009-52.533-80.056c-41.809-56.671-91.625-90.884-146.713-75.597l-2.887,1.085
								c-20.313,7.634-29.549,31.174-19.848,50.584c0,0,77.037,160.863,109.759,210.332c8.971,13.563,23.536,22.442,38.509,28.786
								l131.367,50.19C1202.865,2390.44,1209.4,2272.734,1173.554,2246.728z"/><path fill="#cfa57e" d="M909.639,2115.928l-56.322-98.673c-25.646-56.121-81.857-107.706-140.383-88.16l-15.421,5.15
								c-26.472,8.841-39.332,38.774-27.523,64.062c0,0,90.736,200.393,127.193,263.916c8.777,15.294,23.742,26.07,39.978,32.95
								c0,0,44.933,19.04,99.433,42.135L909.639,2115.928z"/><path fill="#f2d0ba" d="M971.788,2178.315c-5.014,2.721-11.284,0.862-14.005-4.151
								c-22.966-42.317-16.589-36.785-39.555-79.102c-2.721-5.014-0.863-11.284,4.151-14.005c3.441-1.867,18.654-8.561,18.654-8.561
								c6.793-3.687,15.288-1.169,18.975,5.624c0,0,28.013,60.925,26.623,80.127
								C986.011,2166.815,975.229,2176.448,971.788,2178.315z"/><path fill="#e6c5af" d="M719.022,2086.934c-5.571,2.497-12.111,0.004-14.608-5.567
								c-21.073-47.019-18.841-48.692-39.913-95.711c-2.497-5.571-0.005-12.111,5.566-14.608c3.823-1.714,20.599-7.621,20.599-7.621
								c7.548-3.383,16.408-0.006,19.791,7.542c0,0,29.072,75.378,26.032,95.756C735.132,2075.817,722.845,2085.22,719.022,2086.934
								z"/><path fill="#e0c0ab" d="M509.522,1974.406c-3.444,5.041-10.322,6.335-15.363,2.891
								c-42.545-29.066-41.516-31.659-84.06-60.725c-5.041-3.444-6.335-10.322-2.892-15.363
								c2.363-3.459,13.576-17.266,13.576-17.266c4.666-6.829,13.984-8.583,20.814-3.917c0,0,64.189,49.06,72.25,68.02
								C517.444,1956.507,511.886,1970.947,509.522,1974.406z"/><path fill="#c79f7a" d="M2442.886,2169.866c0,0,0.156,4.78,0.237,13.132c0.113,4.173-0.03,9.243-0.453,15.09
								c-0.172,2.93-0.357,6.047-0.55,9.333c-0.257,3.28-0.78,6.681-1.187,10.264c-0.464,3.571-0.844,7.317-1.43,11.162
								c-0.707,3.824-1.439,7.778-2.191,11.843c-1.336,8.18-3.721,16.587-5.881,25.368c-2.778,8.591-5.046,17.701-8.65,26.505
								c-3.183,8.963-7.115,17.787-11.007,26.634c-2.017,4.389-4.381,8.616-6.547,12.913l-3.314,6.394l-3.618,6.184
								c-2.424,4.094-4.708,8.228-7.326,12.091c-2.627,3.853-5.223,7.659-7.775,11.403c-2.467,3.796-5.342,7.226-8.006,10.671
								c-2.753,3.382-5.224,6.853-8.079,9.882c-5.506,6.214-10.663,12.106-16.028,16.984c-2.603,2.499-5.098,4.894-7.47,7.171
								c-2.532,2.103-4.934,4.098-7.19,5.972c-4.489,3.761-8.453,6.948-11.985,9.249c-6.911,4.772-10.889,7.376-10.889,7.376
								s3.381-3.424,9.351-9.2c3.083-2.774,6.436-6.564,10.377-10.766c1.954-2.108,4.035-4.352,6.227-6.717
								c2.074-2.468,4.255-5.062,6.531-7.77c4.692-5.27,9.12-11.528,14.073-17.879c2.544-3.123,4.699-6.691,7.12-10.155
								c2.282-3.567,5.024-6.912,7.217-10.733c2.309-3.733,4.657-7.529,7.033-11.371c2.328-3.868,4.414-7.948,6.743-11.919
								l3.415-6.035l3.117-6.245c2.041-4.193,4.253-8.32,6.169-12.591c3.891-8.517,7.838-17.016,11.051-25.671
								c3.549-8.521,6.368-17.163,9.379-25.439c2.364-8.469,5.412-16.47,7.274-24.34c1.046-3.911,2.063-7.715,3.047-11.395
								c0.954-3.69,1.693-7.297,2.504-10.745c1.658-6.903,2.93-13.251,3.953-18.918c1.097-5.65,2.094-10.622,2.626-14.769
								C2442.042,2174.574,2442.886,2169.866,2442.886,2169.866z"/><path fill="#fff" d="M3000,1953.028l-399.675-93.338c-143.946,193.39-219.314,525.904-169.127,724.202
							L3000,2716.726V1953.028z"/><path fill="#e6e6e6" d="M3000,1953.028l-301.867-70.496c-111.403,173.423-204.974,502.825-191.729,718.923
							L3000,2716.726V1953.028z"/><path fill="#4f4f4f" d="M3000,1893.078l-240.504-56.166c-146.619,181.746-277.796,664.102-204.024,873.644
							L3000,2814.368V1893.078z"/><ellipse cx="2669.977" cy="2666.762" fill="#e8bb46" rx="37.438" ry="37.437" transform="rotate(-15.225 2669.571 2666.535)"/><path fill="#e8bb46" d="M2800.918,2702.027c-7.549,19.249-29.274,28.733-48.523,21.184s-28.734-29.272-21.184-48.521
							c7.549-19.249,29.274-28.733,48.523-21.184S2808.467,2682.779,2800.918,2702.027z"/><ellipse cx="2863.518" cy="2706.47" fill="#e8bb46" rx="37.438" ry="37.437" transform="rotate(-9.341 2863.94 2706.825)"/><g><path fill="#dedede" d="M1100.073,1041.583c0,0-181.167,33.351-228.541,0.445
							c-16.231-11.275-2.261-75.293-2.261-75.293l224.613-3.962L1100.073,1041.583z"/><path fill="#d9d9d9" d="M1410.485,1623.244c28.66,20.054,45.312,45.762,43.168,72.375
							c-4.335,53.191-82.308,89.85-174.094,81.85c-3.628-0.316-7.139-0.799-10.704-1.257c-58.674-7.172-85.748,3.816-92.264,37.707
							c-9.639,49.789-84.932,83.448-173.292,75.746c-45.893-4-86.562-18.401-115.217-38.452
							c-28.654-20.051-45.293-45.75-43.125-72.346c4.34-53.25,82.26-89.884,174.094-81.85c3.627,0.316,7.139,0.799,10.656,1.223
							c58.674,7.172,85.748-3.816,92.312-37.673c9.639-49.789,84.884-83.481,173.244-75.779
							C1341.155,1588.788,1381.824,1603.19,1410.485,1623.244z"/><path fill="#2e2e2e" d="M1408.961,1667.34c0.583-21.976-74.568-22.599-132.507-19.547
							c-57.938,3.051-92.376-10.816-94.254,15.798c-0.404,5.72-0.238,7.536,0.095,13.947c0.903,17.383,10.618,31.785,50.359,32.409
							c4.147,0.065,18.356-5.483,22.665-5.403c26.136,0.483,73.238,10.665,104.54,5.771
							C1389.046,1705.753,1408.412,1688.033,1408.961,1667.34z"/><path fill="#6b5b4c" d="M1408.718,1663.383c-1.169-15.526-71.855-23.666-135.185-16.6
							c-57.638,6.431-91.93-15.411-90.24,12.556c1.69,27.968,22.002,40.324,79.941,37.273c26.119-1.375,61.961,11.762,93.262,6.868
							C1385.682,1698.917,1410.272,1684.021,1408.718,1663.383z"/><path fill="#d9d9d9" d="M1185.364,1668.565c21.868,43.183,123.182,7.474,110.263-21.152
							c0,0-18.548-240.897-21.657-290.128c-3.691-58.446-35.67-270.563-35.67-270.563l-163.593,12.584l68.159,301.593
							L1185.364,1668.565z"/><path fill="#2e2e2e" d="M1041.166,1762.66c0.913,50.621,16.436,79.542-33.084,80.732
							c-35.471,0.852-54.542-38.536-55.455-89.158c-0.913-50.621,25.988-93.689,52.151-94.159
							C1030.94,1659.605,1040.253,1712.039,1041.166,1762.66z"/><path fill="#6b5b4c" d="M1040.03,1749.978c3.634,51.222,18.496,82.031-31.025,83.221
							c-35.471,0.852-54.514-41.549-55.427-92.17c-0.913-50.621,25.988-93.69,52.151-94.159
							C1031.89,1646.4,1036.447,1699.476,1040.03,1749.978z"/><path fill="#eaeaea" d="M954.314,1741.138c12.194,48.777,74.794,50.26,88.488,9.396L1147.845,1093l-164.826-1.351
							L954.314,1741.138z"/><path fill="#f0c7ad" d="M1550.244,920.917c-7.016,1.4-18.406-1.138-20.503,0.522
							c-0.52,1.368,54.531,15.507,58.059,19.326c13.183,8.658-6.923,28.067-10.051,30.883c-11.634,10.473-45.197,7.381-56.804,4.418
							c-13.007-3.32-31.547-7.608-36.741-14.912c-3.422-4.812-9.673-7.486-13.83-9.39c-16.555-7.582-11.07-50.517-1.016-47.575
							c9.235,2.627,15.628,0.18,22.735-3.462c13.26-6.797,33.009-3.127,36.433-1.091c7.499,4.46,24.89,6.102,30.98,5.518
							c1.603-0.154,3.094,0.988,3.222,2.593C1563.122,912.696,1559.117,919.147,1550.244,920.917z"/><path fill="#fff" d="M1450.652,888.112l31.282,5.023c10.114,15.909,3.17,57.585-10.079,73.206l-33.014-3.929
							C1449.747,938.309,1454.725,916.447,1450.652,888.112z"/><path fill="#f7f7f7" d="M1188.48,609.524c-32.332,6.3-53.349,23.905-51.378,56.787c0,0,71.809,242.172,95.44,267.58
							c24.585,26.435,212.952,34.88,212.952,34.88c14.678-28.421,19.045-53.545,12.206-86.438l-155.646-34.847
							c0,0-18.929-108.165-31.367-154.882C1261.412,657.774,1250.859,597.369,1188.48,609.524z"/><path fill="#ebebeb" d="M1387.295,866.571c-28.189,30.621-28.366,67.675-0.094,98.349
							c33.125,2.721,58.292,3.851,58.292,3.851c14.678-28.421,19.045-53.545,12.206-86.438L1387.295,866.571z"/><path fill="#dedede" d="M1228.093,867.277c-1.422,79.415,8.557,211.469,18.42,263.114
							c-9.014,64.899-265.604,117.469-273.452,72.882c2.877-43.525,21.068-174.93,7.472-261.728
							c-6.09-38.879-46.534-94.057-51.844-155.585c-3.533-40.942-3.234-92.622,29.788-117.082
							c11.17-8.274,43.169-22.91,59.231-29.279c34.11-13.526,54.841-23.779,73.77-30.201c29.916-10.15,71.208-3.606,99.151-7.098
							c42.506-5.313,59.216,26.564,57.31,62.437C1244.007,738.677,1229.006,816.269,1228.093,867.277z"/><path fill="#ebebeb" d="M1176.449,719.474c-19.064-27.597-38.847-58.836-72.793-73.936
							c-27.919-12.419-70.557-12.043-85.95-5.939c-16.061,6.369-48.06,21.005-59.231,29.279
							c-33.021,24.46-33.321,76.14-29.788,117.082c5.31,61.528,45.754,116.706,51.844,155.585
							c13.597,86.798-5.16,226.444-8.037,269.969c5.368,30.497,123.873,10.013,204.966-22.559L1176.449,719.474z"/><path fill="#d9b49c" d="M1142.861,492.673l13.958,115.508c0,0-2.316,31.07-37.851,36.37
							c-36.897,5.503-76.053-8.45-76.053-8.45l-16.529-138.751L1142.861,492.673z"/><path fill="#fff" d="M1135.627,613.495c-2.351,2.712,0,15.334,4.22,24.387c2.322,1.388,19.119-14.057,22.213-22.214
							c3.744-6.24-4.274-31.124-10.552-35.579C1149.796,600.64,1140.711,607.63,1135.627,613.495z"/><path fill="#ff512e" d="M1139.849,639.233c-0.509,0-0.998-0.29-1.227-0.781c-3.768-8.079-7.205-22.165-4.017-25.843
								c0.664-0.765,1.395-1.549,2.168-2.38c5.038-5.407,11.935-12.811,13.389-30.254c0.062-0.744,0.72-1.307,1.46-1.235
								c0.744,0.062,1.297,0.716,1.235,1.46c-1.531,18.377-8.799,26.177-14.106,31.872c-0.749,0.806-1.458,1.566-2.101,2.308
								c-1.536,1.771-0.102,13.221,4.424,22.93c0.316,0.677,0.023,1.481-0.654,1.797
								C1140.234,639.193,1140.039,639.233,1139.849,639.233z"/><path fill="#fff" d="M1103.657,632.391c-0.07,11.855,0.676,13.182,0.676,13.182
							c-9.893,6.385-72.03-5.669-71.22-12.515c4.956-3.866,6.986-18.929,5.408-31.773
							C1058.219,612.558,1103.766,613.743,1103.657,632.391z"/><path fill="#fafafa" d="M958.074,1001.494c21.279-47.26,54.849-161.248,63.303-223.599
							c4.843-35.717-8.454-83.487-44.104-98.343c-30.406-12.671-56.593,9.413-64.268,41.447c0,0-56.953,224.372-59.424,257.211
							c-1.96,26.042,3.911,59.434,23.604,65.979C903.677,1052.994,937.891,1046.32,958.074,1001.494z"/><path fill="#f0c7ad" d="M1006.748,470.135c1.974,34.505,9.139,73.073,34.11,91.52
							c22.502,16.623,47.62,42.167,75.199,42.15c38.636-0.024,57.332-48.604,57.182-107.835c-0.028-11.036,0.97-32.039,1.185-43.399
							c0.172-9.081,7.42-17.664-2.42-40.66c-12.932-30.22-48.376-46.089-88.273-43.807
							C1015.068,372.031,1002.8,401.125,1006.748,470.135z"/><path fill="#5c4c42" d="M1083.444,363.095c44.62-3.009,97.712,21.096,93.463,77.567
							c-5.11-11.434-9.074,11.231-20.483,20.566c-16.727,13.686-77.829-7.461-106.315,14.695
							c-5.853,4.552-7.622,21.166-7.774,25.396c-2.781,1.001-6.341,2.225-10.666,4.301c-2.706-11.025,1.147-27.944-8.785-27.863
							c-10.292,0.084-11.112,14.828-8.869,27.528c1.518,8.598,11.245,36.967,10.986,40.565
							c-16.625-24.723-19.459-43.502-23.661-62.195C986.69,418.488,1015.031,367.709,1083.444,363.095z"/><polygon fill="#ccc" points="995.537 440.282 991.458 378.325 1150.108 340.737 1169.264 406.861"/><path fill="#e8e8e8" d="M1176.471,423.128c-14.666,34.578-155.215,55.014-180.935,17.154l-11.608-68.901
								l187.171-53.418L1176.471,423.128z"/><path fill="#f7f7f7" d="M1017.601,447.006c3.644,2.12,8.769,3.574,13.719,3.78l-7.092-57.049
								c-4.157-0.257-9.563-1.418-13.771-2.826L1017.601,447.006z"/><path fill="#cfcfcf" d="M989.403,403.877c6.869-2.864,13.124-6.692,18.606-11.276
								c9.639,8.501,22.147,13.283,34.809,14.82c14.526,1.763,29.501-0.645,42.916-6.42c7.534-3.243,14.606-7.596,20.808-12.971
								c16.529,10.019,36.952,12.268,54.64,3.839c4.862-2.317,9.37-5.353,13.405-8.917l-3.488-64.989l-187.171,53.418
								L989.403,403.877z"/><path fill="#fff" d="M1035.995,324.845c2.204,11.292,0.57,23.093-4.454,33.429
									c-5.013,10.315-13.205,18.946-23.103,24.706c-10.548,6.138-22.945,8.997-35.117,8.147
									c-11.497-0.803-22.72-4.96-31.841-12.03c-9.025-6.995-15.762-16.745-18.855-27.757c-3.128-11.137-2.455-23.111,1.813-33.855
									c4.213-10.606,11.732-19.753,21.144-26.172c10.024-6.836,22.099-10.517,34.223-10.572
									c11.661-0.052,23.285,3.316,33.007,9.78c9.468,6.295,16.933,15.452,20.887,26.137
									C1034.684,319.319,1035.451,322.06,1035.995,324.845z"/><path fill="#fff" d="M1108.992,275.74c2.252,11.535-0.356,23.417-6.285,33.465
									c-6.458,10.945-16.438,19.568-27.654,25.391c-12.513,6.497-26.789,9.695-40.876,9.268
									c-12.884-0.391-25.852-3.886-36.697-10.971c-9.773-6.384-17.587-15.773-20.911-27.068
									c-3.302-11.218-1.867-23.234,3.237-33.68c5.495-11.246,14.753-20.383,25.404-26.803
									c12.083-7.283,26.152-11.253,40.236-11.681c13.049-0.397,26.346,2.316,37.818,8.665c10.22,5.657,18.881,14.323,23.304,25.25
									C1107.635,270.212,1108.447,272.949,1108.992,275.74z"/><path fill="#fff" d="M1106.414,244.87c11.69-2.282,23.731,0.358,33.915,6.363
									c11.137,6.567,19.904,16.73,25.812,28.148c6.567,12.691,9.792,27.164,9.342,41.441c-0.41,13.009-3.943,26.096-11.084,37.054
									c-6.459,9.911-15.962,17.845-27.403,21.235c-11.407,3.38-23.632,1.925-34.256-3.273
									c-11.395-5.576-20.652-14.963-27.157-25.76c-7.351-12.203-11.369-26.402-11.829-40.623
									c-0.428-13.276,2.316-26.812,8.774-38.486c5.751-10.398,14.574-19.204,25.699-23.679
									C1100.872,246.228,1103.617,245.416,1106.414,244.87z"/><path fill="#fff" d="M1180.151 362.427c-9.482 1.851-19.359.279-27.931-4.125-8.756-4.499-15.955-11.733-20.779-20.283-5.22-9.25-7.688-20.039-7.072-30.639.575-9.891 3.883-19.639 9.779-27.632 5.694-7.72 13.754-13.592 23.007-16.24 9.322-2.668 19.347-1.957 28.27 1.796 9.001 3.786 16.639 10.441 22.003 18.564 5.84 8.846 8.991 19.405 9.117 29.994.12 10.055-2.548 20.149-7.941 28.663-5.098 8.049-12.61 14.522-21.547 17.928C1184.817 361.308 1182.504 361.967 1180.151 362.427zM1114.848 327.342c2.707 9.486 1.387 19.608-2.838 28.442-4.619 9.657-12.369 17.619-21.359 23.318-10.032 6.36-21.786 10.075-33.641 10.731-10.807.598-21.905-1.389-31.495-6.521-8.679-4.644-15.934-11.959-19.551-21.206-3.589-9.176-3.255-19.367.277-28.504 3.802-9.836 10.919-18.173 19.401-24.324 9.589-6.953 21.065-11.284 32.814-12.663 10.929-1.283 22.288.031 32.381 4.53 8.99 4.007 16.888 10.659 21.387 19.513C1113.311 322.796 1114.19 325.037 1114.848 327.342z"/><path fill="#d9d9d9" d="M1078.904,353.053c6.88,9.827,18.406,17.653,29.677,21.482
									c6.094,2.07,12.799,2.985,19.085,1.213c3.839-1.083,7.436-3.201,10.827-5.229c5.314-3.178,10.262-6.907,14.509-11.428
									c1.486-1.582,2.829-3.276,4.153-4.994c0.992-1.287,0.929-1.741,2.385-1.642c1.709,0.116,3.544,0.83,5.23,1.128
									c3.215,0.569,6.477,0.766,9.732,0.466c5.981-0.552,12.166-2.649,17.628-5.087c5.723-2.554,11.083-6.06,15.209-10.827
									c4.672-5.397,7.192-11.819,8.942-18.654c5.598,30.41-30.54,50.901-56.906,43.515c1.786-0.61,3.571-1.22,5.357-1.83
									c-5.899,7.154-13.244,12.726-21.625,16.68c-7.094,3.346-14.614,6.07-22.574,5.425c-8.856-0.717-17.209-4.773-24.244-10.041
									C1089.341,368.028,1082.448,361.108,1078.904,353.053c0.118,0.169,1.429,1.814,1.258,2.01
									C1080.082,355.156,1078.923,353.095,1078.904,353.053C1081.269,356.431,1079.735,354.942,1078.904,353.053z"/><path fill="#d9d9d9" d="M1014.139 375.351c27.953 13.644 59.732 8.681 86.878-4.693-4.683 6.164-11.543 10.581-18.358 14.052-7.261 3.698-15.08 6.353-23.199 7.271C1043.373 393.799 1023.96 389.271 1014.139 375.351zM1078.412 344.716c26.713-4.632 46.63-24.362 58.981-47.669-.162 6.746-2.753 13.368-5.796 19.3-3.242 6.32-7.41 12.187-12.677 16.98C1108.484 342.824 1092.457 349.535 1078.412 344.716z"/><path fill="#d9d9d9" d="M926.996 360.946c5.577 5.504 11.113 10.64 18.022 14.488 7.683 4.279 16.159 6.922 24.883 7.965 6.852.819 14.698 1.246 21.491-.296 7.764-1.763 15.204-5.839 21.87-10.077 7.081-4.502 13.526-9.865 18.779-16.426-3.351 7.779-8.839 14.374-15.114 19.991-6.802 6.089-14.933 11.84-23.738 14.555-16.934 5.223-36.074 3.569-50.51-7.275C935.244 378.285 929.007 370.166 926.996 360.946zM963.961 314.585c3.22 4.554 6.458 8.845 10.818 12.405 4.849 3.958 10.459 6.87 16.442 8.691 4.699 1.43 10.144 2.71 15.097 2.478 5.661-.265 11.384-2.192 16.585-4.328 5.525-2.27 10.712-5.223 15.213-9.163-3.32 5.032-7.99 8.968-13.089 12.12-5.528 3.417-11.944 6.43-18.454 7.233-12.52 1.543-25.725-2.008-34.486-11.411C967.574 327.766 964.218 321.297 963.961 314.585zM1001.859 284.785c-13.541-6.037-28.485-5.465-41.643 1.3-15.306 7.869-28.938 19.648-35.004 36.163-2.985 8.127-3.487 16.366-3.577 24.923-5.732-15.703-1.862-33.258 8.839-45.889 5.632-6.648 12.833-11.889 20.773-15.446 7.708-3.453 16.678-5.899 25.117-6.531C985.381 278.628 993.915 280.53 1001.859 284.785z"/><path fill="#d9d9d9" d="M1104.298,265.652c-4.881-8.896-11.584-16.046-20.628-20.823
									c-10.367-5.476-22.178-7.803-33.832-8.054c-18.855-0.405-38.711,5.528-53.468,17.71
									c-8.858,7.312-15.279,15.87-19.872,26.373c9.734-44.166,67.332-61.79,104.836-42.08
									C1092.355,244.569,1100.521,253.766,1104.298,265.652z"/><path fill="#d9d9d9" d="M1155.625 263.989c-9.53-6.367-18.627-12.623-29.917-15.524-10.805-2.777-21.529-1.783-32.189 1.05C1112.861 232.431 1143.87 243.515 1155.625 263.989zM1092.58 272.014c-11.281-2.026-22.121-4.123-33.629-2.269-11.014 1.774-20.446 6.973-29.085 13.831C1040.765 260.184 1073.62 257.947 1092.58 272.014zM1191.33 323.871c-1.453-8.371-2.746-16.453-6.959-23.997-4.032-7.22-10.048-12.469-17.017-16.743C1186.411 284.78 1196.312 307.093 1191.33 323.871z"/><path fill="#d9d9d9" d="M1215.499,303.742c-3.539-7.949-7.312-15.494-13.355-21.899
									c-6.17-6.54-13.801-11.47-22.255-14.516c-8.167-2.943-16.673-4.213-25.29-3.274c-8.166,0.89-16.094,2.768-23.856,5.423
									c7.624-3.202,15.493-5.519,23.665-6.837c9.695-1.563,18.988-2.901,28.624-0.091
									C1201.224,267.856,1215.228,284.523,1215.499,303.742z"/><path fill="#fff" d="M1103.657,645.868l-16.732,36.688c-0.599,6.852,4.02,13.057,10.762,14.423
							c20.305,4.113,61.364,13.133,79.424,22.164C1164.206,699.29,1134.726,657.574,1103.657,645.868z"/><path fill="#ff512e" d="M1290.68,1455.785c24.337,76.617-325.395,231.653-343.423,127.094
							c0,0,8.272-264.491,11.066-348.298c2.722-81.653,22.713-118.357,22.713-118.357c15.409,51.536,150.738,55.502,212.923,1.746
							c28.581-24.707,44.63-63.827,39.934-97.547c0,0,16.984,57.165,20.664,110.52
							C1260.174,1212.396,1290.68,1455.785,1290.68,1455.785z"/><path fill="#f04b2d" d="M1253.81,1518.234c-0.918-12.72-9.711-44.725-8.441-88.055
							c2.114-72.11-15.094-174.319-16.054-269.421c-0.295-29.181-2.566-57.557-4.68-84.194
							c-7.044,15.565-17.508,30.022-30.676,41.405c-38.879,33.609-106.35,44.655-155.228,35.618
							c-0.037,1.181-0.083,2.393-0.115,3.553c-1.37,49.709,7.565,135.271-5.837,223.643c-7.562,49.863,0.883,108.795-9.387,161.899
							c-4.898,25.328-5.01,51.045-3.684,74.812c71.243-5.079,176.75-50.838,233.196-97.355
							C1253.205,1519.505,1253.544,1518.828,1253.81,1518.234z"/><g><ellipse cx="1562.554" cy="916.35" fill="#d9d9d9" rx="167.903" ry="97.254" transform="translate(-2.59 4.431)"/><path fill="#969696" d="M1688.726,840.305c-66.863-40.242-177.563-41.361-247.255-2.501
									c-35.867,19.999-53.883,46.691-53.807,73.374c0.071,25.164,16.233,50.322,48.685,69.853l0,0
									c66.863,40.242,177.563,41.362,247.255,2.501c35.867-20,53.882-46.691,53.807-73.374
									C1737.339,884.994,1721.178,859.836,1688.726,840.305z M1728.115,931.574c-0.424,1.486-1.082,3.446-1.707,4.859
									c-1.188,2.687-2.85,6.244-4.325,8.784c-1.49,2.566-4.76,7.713-9.917,13.361c-2.267,2.483-5.514,5.587-7.994,7.858
									c-1.703,1.56-4.154,3.432-5.937,4.899c-2.77,2.281-6.709,5.032-9.786,6.877c-2.946,1.766-6.849,4.165-9.862,5.815
									c-2.821,1.545-6.625,3.537-9.572,4.826c-3.277,1.433-7.626,3.392-10.95,4.711c-3.259,1.293-7.659,2.882-10.985,3.992
									c-7.716,2.574-15.542,4.714-23.828,6.564c-10.559,2.358-19.895,3.673-25.175,4.332c-8.509,1.061-17.237,1.749-25.966,2.046
									c-8.902,0.303-17.696,0.201-26.214-0.266c-3.903-0.214-9.101-0.612-12.99-1c-3.894-0.389-9.065-1.097-12.946-1.592
									c-3.784-0.483-8.792-1.405-12.535-2.139c-3.803-0.745-8.832-1.945-12.614-2.791c-3.919-0.877-9.09-2.305-12.896-3.585
									c-6.513-2.19-15.2-5.155-21.494-7.913c-3.499-1.533-8.103-3.722-11.504-5.462c-2.741-1.403-6.27-3.507-8.958-5.009
									c-0.344-0.207-0.739-0.329-1.173-0.359c0.434,0.03,0.829,0.152,1.173,0.359c-3.387-2.109-7.821-5.055-11.072-7.368
									c-2.015-1.434-4.636-3.45-6.468-5.111c-3.049-2.765-7.105-6.482-9.868-9.533c-2.469-2.726-5.4-6.676-7.527-9.676
									c-1.484-2.093-3.125-5.115-4.281-7.406c-1.005-1.992-2.226-4.72-2.91-6.844c-0.811-2.517-1.833-5.907-2.295-8.51
									c-0.28-1.583-0.561-3.711-0.712-5.312c-0.117-1.238-0.124-2.899-0.177-4.141c-0.073-25.62,17.225-51.247,51.662-70.449
									c66.914-37.311,173.201-36.236,237.399,2.402c31.159,18.753,46.676,42.907,46.744,67.069
									c-0.062,2.215-0.175,5.177-0.502,7.369C1729.577,925.765,1728.818,929.109,1728.115,931.574z"/><path fill="#707070" d="M1686.886,985.507c-71.581,39.914-185.282,38.764-253.957-2.569
									c-31.929-19.217-48.493-43.736-49.896-68.485c0.077,1.603,0.188,3.248,0.316,4.622c0.173,1.84,0.599,4.271,0.886,6.097
									c0.455,2.899,1.493,6.691,2.373,9.49c2.982,9.488,7.422,17.225,10.622,22.045c6.857,10.33,14.14,17.186,17.723,20.481
									c4.148,3.812,10.196,8.305,14.73,11.649c2.4,1.771,5.851,3.768,8.358,5.383c3.442,2.04,8.114,4.623,11.681,6.436
									c3.312,1.684,7.787,3.828,11.236,5.212c6.589,2.644,15.512,5.827,22.253,8.055c3.67,1.213,8.68,2.448,12.425,3.405
									c3.676,0.939,8.627,1.99,12.351,2.715c3.741,0.729,8.742,1.662,12.525,2.128c3.818,0.47,8.892,1.265,12.728,1.56
									c7.741,0.596,18.079,1.325,25.843,1.409c3.897,0.042,9.095-0.023,12.991-0.156c3.888-0.133,9.063-0.511,12.947-0.731
									c3.897-0.221,9.062-0.918,12.945-1.318c3.823-0.393,8.886-1.226,12.673-1.882c3.856-0.668,8.984-1.653,12.797-2.532
									c3.955-0.912,9.238-2.117,13.118-3.308c6.916-2.124,16.06-5.217,22.842-7.737c3.792-1.408,8.689-3.689,12.343-5.424
									c3.068-1.456,7.068-3.583,10.051-5.205c3.639-1.979,8.314-4.934,11.778-7.205c2.489-1.631,5.641-4.049,8.051-5.795
									c3.326-2.411,7.378-6.126,10.397-8.912c3.26-3.008,7.257-7.401,10.033-10.86c2.781-3.465,6.129-8.375,8.444-12.167
									c1.152-1.887,2.579-4.478,3.47-6.501c1.591-3.612,3.728-8.452,4.789-12.253c0.884-3.166,1.97-7.429,2.451-10.681
									c0.379-2.561,0.951-6.43,0.951-12.329C1742.229,937.551,1723.725,964.966,1686.886,985.507z"/><path fill="#fcfcfc" d="M1692.142,838.4c-68.673-41.331-182.369-42.481-253.948-2.569
									c-71.579,39.912-73.934,105.773-5.261,147.104l0,0c68.673,41.331,182.37,42.481,253.948,2.569
									C1758.46,945.592,1760.815,879.731,1692.142,838.4z M1683.604,983.532c-69.692,38.86-180.392,37.741-247.255-2.501l0,0
									c-66.863-40.242-64.57-104.367,5.122-143.227c69.692-38.86,180.392-37.741,247.255,2.501
									C1755.589,880.547,1753.296,944.672,1683.604,983.532z"/><g><path fill="#e6e6e6" d="M1675.832,846.389c62.224,35.925,62.558,94.177,0.732,130.106
										c-61.819,35.925-162.386,35.923-224.61-0.002c-62.23-35.928-62.558-94.177-0.738-130.102
										C1513.042,810.461,1613.602,810.461,1675.832,846.389z"/><path fill="#ededed" d="M1718.315,893.987c-0.912-7.012-2.446-16.34-4.159-23.201
										c-1.793-7.183-6.212-19.323-11.675-29.001c-2.457-4.352-6.061-9.976-8.989-14.026c-2.53-3.5-6.148-8.011-9.17-11.096
										c-4.321-4.413-10.28-10.128-15.083-14.011c-4.51-3.647-10.956-7.963-15.882-11.025c-2.869-1.784-6.849-3.907-9.854-5.452
										c-2.574-1.323-6.082-2.933-8.731-4.1c-1.441-0.635-9.093-3.938-18.211-6.652c-10.009-2.979-17.062-4.216-17.132-4.228
										c-2.521-0.437-5.868-1.118-8.408-1.431c-2.521-0.311-5.877-0.78-8.404-1.033c-2.502-0.25-5.845-0.538-8.358-0.644
										c-2.501-0.105-5.838-0.244-8.341-0.269c-2.502-0.026-5.838,0.07-8.339,0.1c-2.505,0.03-5.837,0.325-8.339,0.471
										c-2.546,0.148-5.926,0.543-8.457,0.862c-2.596,0.326-6.055,0.796-8.625,1.288c-5.134,0.982-11.932,2.531-16.999,3.815
										c-2.793,0.708-6.434,1.951-9.181,2.821c-2.959,0.937-6.818,2.447-9.694,3.616c-2.66,1.081-6.16,2.641-8.75,3.882
										c-10.286,4.928-17.476,9.758-19.084,10.852c-3.36,2.287-7.722,5.513-10.904,8.043c-2.4,1.908-5.402,4.691-7.684,6.738
										c-3.518,3.156-7.843,7.782-10.791,11.475c-3.95,4.95-8.754,11.917-12.146,17.265c-3.108,4.899-6.306,12.001-8.494,17.375
										c-1.993,4.893-4.077,11.647-5.406,16.761c-1.784,6.863-2.936,16.292-3.772,23.333c-0.434,3.66-0.319,8.595-0.455,12.279
										c0.063,22.318,14.396,44.63,43.178,61.952c59.3,35.69,157.478,36.683,219.287,2.218
										c31.81-17.737,47.788-41.409,47.721-65.075C1718.95,903.713,1718.854,898.127,1718.315,893.987z"/><path fill="#fff" d="M1687.651,935.264c-1.149-9.339-4.842-25.338-10.235-38.393
										c-2.425-5.871-6.1-13.523-9.166-19.086c-2.649-4.807-6.515-11.058-9.848-15.418c-4.768-6.236-11.399-14.369-16.856-20.011
										c-5.125-5.299-12.588-11.742-18.327-16.369c-3.343-2.695-8.034-5.99-11.586-8.404c-3.042-2.067-7.218-4.643-10.378-6.524
										c-1.685-1.003-10.497-6.16-21.274-10.916c-0.321,0.907-0.821,1.757-1.452,2.516c-1.259,1.513-2.893,2.668-4.681,3.549
										c6.215,5.717,10.663,10.404,11.752,11.568c2.815,3.01,6.509,7.084,9.139,10.257c3.071,3.705,7.094,8.714,9.853,12.657
										c4.737,6.768,10.763,16.029,14.628,23.33c4.116,7.774,8.721,18.596,11.91,26.794c2.23,5.732,4.443,13.666,5.797,19.666
										c1.567,6.944,3.139,16.326,3.92,23.402c1.737,15.734,0.728,34.107-0.945,44.518c-0.433,2.694-0.987,5.621-1.615,8.645
										c11.746-3.746,22.852-8.434,32.977-14.08c6.7-3.736,12.688-7.738,17.981-11.944
										C1689.08,952.711,1688.587,942.869,1687.651,935.264z"/><path fill="#e0e0e0" d="M1580.359,797.535c-0.171-2.577-1.835-4.64-3.859-6.148
											c-1.122-0.836-2.361-1.51-3.646-2.057c-0.658-0.28-1.329-0.527-2.01-0.745c-0.323-0.103-0.648-0.2-0.975-0.29
											c-0.178-0.049-0.356-0.096-0.534-0.141c-0.068-0.017-0.713-0.177-0.314-0.081c-3.415-0.794-6.966-1.023-10.454-0.644
											c-3.273,0.355-6.582,1.161-9.482,2.761c-1.336,0.737-2.547,1.649-3.582,2.77c0.196-0.219-0.065,0.071-0.083,0.091
											c-0.098,0.11-0.195,0.219-0.288,0.333c-0.195,0.24-0.382,0.487-0.554,0.744c-0.359,0.538-0.664,1.113-0.876,1.725
											c-0.42,1.209-0.499,2.512-0.18,3.755c-0.03-0.15,0.05,0.165,0.049,0.16c0.03,0.106,0.062,0.21,0.097,0.314
											c0.065,0.194,0.139,0.385,0.221,0.573c0.17,0.391,0.374,0.766,0.605,1.125c0.526,0.816,1.189,1.539,1.921,2.175
											c0.832,0.722,1.756,1.336,2.722,1.862c0.5,0.272,1.013,0.521,1.534,0.748c0.291,0.127,0.585,0.247,0.881,0.361
											c0.15,0.058,0.3,0.114,0.451,0.168c0.054,0.02,0.483,0.174,0.206,0.076c0.257,0.082,0.511,0.171,0.768,0.252
											c0.124,0.039,0.248,0.076,0.372,0.114c0.025,0.008,0.224,0.066,0.084,0.025c0.111,0.032,0.129,0.038,0.054,0.017
											c4.708,1.368,9.817,1.557,14.613,0.548c3.799-0.799,7.882-2.407,10.431-5.47
											C1579.738,801.206,1580.484,799.423,1580.359,797.535z"/><path fill="#999" d="M1581.864,777.522c-11.517,6.422-29.812,6.237-40.862-0.413
												c-2.309-1.389-4.119-2.951-5.432-4.612c6.683,8.447,13.367,16.894,20.05,25.341c0.316,0.399,0.751,0.775,1.307,1.109
												c2.658,1.6,7.059,1.644,9.83,0.1c0.657-0.367,1.164-0.79,1.519-1.244c6.634-8.484,13.269-16.967,19.903-25.451
												C1586.703,774.239,1584.597,775.998,1581.864,777.522z"/><path fill="#d6d6d6" d="M1588.353,761.475c-0.244-3.691-2.628-6.645-5.525-8.804
												c-1.606-1.197-3.38-2.163-5.221-2.946c-0.942-0.401-1.903-0.755-2.878-1.066c-0.463-0.148-0.928-0.286-1.396-0.415
												c-0.254-0.07-0.509-0.138-0.765-0.203c-0.097-0.025-1.022-0.253-0.45-0.116c-4.89-1.137-9.975-1.465-14.969-0.923
												c-4.687,0.509-9.425,1.663-13.578,3.953c-1.912,1.055-3.647,2.36-5.129,3.967c0.28-0.314-0.093,0.102-0.119,0.131
												c-0.141,0.157-0.28,0.314-0.413,0.477c-0.28,0.343-0.547,0.698-0.793,1.066c-0.515,0.77-0.951,1.594-1.255,2.47
												c-0.601,1.73-0.715,3.597-0.258,5.377c-0.042-0.214,0.072,0.237,0.07,0.23c0.043,0.151,0.089,0.301,0.14,0.45
												c0.093,0.278,0.199,0.551,0.316,0.82c0.244,0.56,0.536,1.097,0.867,1.61c0.754,1.169,1.702,2.204,2.75,3.115
												c1.191,1.034,2.514,1.914,3.898,2.667c0.716,0.389,1.45,0.746,2.197,1.072c0.416,0.182,0.837,0.354,1.261,0.517
												c0.214,0.083,0.43,0.163,0.645,0.241c0.077,0.028,0.691,0.249,0.295,0.109c0.368,0.117,0.732,0.245,1.1,0.361
												c0.177,0.055,0.355,0.109,0.533,0.163c0.036,0.011,0.321,0.095,0.12,0.036c0.159,0.046,0.184,0.055,0.078,0.025
												c6.74,1.959,14.056,2.229,20.924,0.784c5.44-1.145,11.286-3.446,14.936-7.833
												C1587.464,766.731,1588.532,764.179,1588.353,761.475z"/><path fill="#fff" d="M1591.111,763.593c-0.009-0.6-0.132-1.4-0.29-1.978c-0.152-0.557-0.383-1.294-0.582-1.836
												c-0.121-0.328-0.326-0.749-0.483-1.062c-0.465-0.922-1.049-1.816-1.736-2.656c-2.075-2.539-4.462-4.023-5.609-4.736
												c-1.671-1.039-4.156-2.139-5.497-2.592c-2.204-0.745-2.383-0.806-3.935-1.19c-1.784-0.441-3.213-0.671-4.134-0.806
												c-3.504-0.513-6.596-0.538-8.573-0.468c-0.662,0.023-2.211,0.078-4.297,0.34c-1.832,0.23-2.627,0.397-4.212,0.729
												c-0.019,0.004-1.937,0.409-4.061,1.13c-1.43,0.485-1.43,0.485-3.848,1.554c-0.807,0.357-3.069,1.555-4.911,2.982
												c-0.552,0.428-1.624,1.307-2.605,2.39c-0.41,0.453-0.913,1.096-1.277,1.586c-0.228,0.309-0.489,0.751-0.694,1.075
												c-0.325,0.514-0.651,1.261-0.896,1.818c-0.138,0.314-0.267,0.754-0.38,1.077c-0.199,0.57-0.32,1.371-0.422,1.966
												c-0.004,0.023-0.382,2.299,0.405,4.893c0.094,0.311,0.381,1.257,1.057,2.526c0.369,0.693,0.987,1.544,1.449,2.179
												c1.313,1.655,3.119,3.212,5.421,4.597c11.05,6.651,29.345,6.836,40.862,0.413c2.726-1.52,4.828-3.274,6.303-5.154
												c0.359-0.478,0.811-1.136,1.129-1.642c0.202-0.322,0.435-0.773,0.599-1.116c0.256-0.537,0.529-1.283,0.72-1.846
												c0.11-0.325,0.199-0.777,0.281-1.11c0.143-0.58,0.19-1.381,0.232-1.976
												C1591.149,764.353,1591.115,763.918,1591.111,763.593z M1580.215,773.175c-10.574,5.896-27.37,5.726-37.514-0.38
												c-10.145-6.105-9.797-15.835,0.777-21.731c10.574-5.896,27.369-5.726,37.514,0.379
												C1591.137,757.549,1590.789,767.279,1580.215,773.175z"/></g></g><g><path fill="#ff512e" d="M1177.419,1131.873c-0.747,0-1.351-0.605-1.353-1.351l-0.306-410.539
								c-17.977-8.69-56.676-17.292-78.341-21.68c-7.409-1.501-12.5-8.32-11.841-15.864c0.015-0.155,0.054-0.304,0.117-0.444
								l16.603-36.405c-0.016-0.89-0.047-3.913,0.006-13.208c0.063-10.804-18.149-15.556-35.763-20.154
								c-10.501-2.741-21.361-5.575-28.693-9.771c-0.648-0.371-0.872-1.196-0.501-1.846c0.368-0.649,1.198-0.869,1.846-0.501
								c7.02,4.019,17.702,6.805,28.032,9.502c18.613,4.857,37.86,9.88,37.785,22.786c-0.068,11.564-0.005,13.345-0.002,13.415
								c0.008,0.212-0.032,0.423-0.12,0.617l-16.632,36.47c-0.42,6.082,3.714,11.541,9.7,12.754
								c22.1,4.476,61.851,13.324,79.761,22.279c0.457,0.229,0.746,0.697,0.747,1.208l0.307,411.379
								c0,0.747-0.605,1.352-1.351,1.354H1177.419z"/></g><g><path fill="#ff512e" d="M1101.538 772.03c3.09-1.784 5.602-.353 5.612 3.178.01 3.551-2.485 7.873-5.576 9.657-3.09 1.784-5.585.343-5.595-3.208C1095.969 778.126 1098.447 773.814 1101.538 772.03zM1101.538 868.472c3.09-1.784 5.602-.353 5.612 3.178.01 3.551-2.485 7.873-5.576 9.657-3.09 1.784-5.585.343-5.595-3.208C1095.969 874.568 1098.447 870.256 1101.538 868.472zM1101.538 964.914c3.09-1.784 5.602-.353 5.612 3.178.01 3.551-2.485 7.873-5.576 9.657-3.09 1.784-5.585.343-5.595-3.208C1095.969 971.01 1098.447 966.698 1101.538 964.914zM1101.538 1061.356c3.09-1.784 5.602-.353 5.612 3.178.01 3.551-2.485 7.873-5.576 9.657s-5.585.343-5.595-3.208C1095.969 1067.452 1098.447 1063.14 1101.538 1061.356z"/></g><g><path fill="#ff512e" d="M1164.52 747.099c3.091-1.784 5.602-.353 5.612 3.178.01 3.551-2.485 7.873-5.575 9.657-3.091 1.784-5.585.343-5.595-3.208C1158.952 753.195 1161.43 748.884 1164.52 747.099zM1164.52 843.541c3.091-1.784 5.602-.353 5.612 3.178.01 3.551-2.485 7.873-5.575 9.657-3.091 1.784-5.585.343-5.595-3.208C1158.952 849.637 1161.43 845.326 1164.52 843.541zM1164.52 939.983c3.091-1.784 5.602-.353 5.612 3.178.01 3.551-2.485 7.873-5.575 9.657-3.091 1.784-5.585.343-5.595-3.208C1158.952 946.079 1161.43 941.768 1164.52 939.983zM1164.52 1036.425c3.091-1.784 5.602-.353 5.612 3.178.01 3.551-2.485 7.873-5.575 9.657-3.091 1.784-5.585.343-5.595-3.208C1158.952 1042.522 1161.43 1038.21 1164.52 1036.425z"/></g><g><path fill="#ff512e" d="M1162.552,634.912c3.09-1.784,5.602-0.353,5.612,3.178c0.01,3.551-2.485,7.873-5.576,9.657
								c-3.09,1.784-5.585,0.343-5.595-3.208C1156.983,641.008,1159.462,636.696,1162.552,634.912z"/></g><g><path fill="#ff512e" d="M1082.512,653.938c3.09-1.784,5.602-0.353,5.612,3.178c0.01,3.551-2.485,7.873-5.576,9.657
								c-3.09,1.784-5.585,0.343-5.595-3.208C1076.943,660.034,1079.421,655.722,1082.512,653.938z"/></g><g><path fill="#5c4c42" d="M1141.401,560.052c0,0-0.255-0.154-0.732-0.443c-0.119-0.072-0.253-0.153-0.399-0.242
							l-0.196-0.118l0.06,0.035c0.054,0.04,0.28,0.035,0.253-0.042c-0.321-0.146-0.838-0.371-1.763-0.461
							c-0.9-0.105-2.14-0.1-3.623,0.058c-6.019,0.566-15.305,3.654-24.947,5.672c-4.838,1.003-9.856,1.699-14.623,1.571
							c-2.374-0.037-4.68-0.316-6.811-0.779c-2.126-0.494-4.099-1.098-5.786-1.946c-0.866-0.362-1.642-0.816-2.366-1.262
							c-0.742-0.408-1.396-0.868-1.985-1.336c-1.231-0.849-2.13-1.794-2.907-2.501c-1.449-1.537-2.191-2.456-2.191-2.456
							s0.944,0.749,2.641,1.899c0.897,0.512,1.924,1.204,3.238,1.733c0.631,0.308,1.316,0.593,2.071,0.81
							c0.736,0.256,1.509,0.504,2.349,0.651c1.634,0.417,3.47,0.549,5.371,0.567c1.91-0.013,3.914-0.212,5.961-0.638
							c4.097-0.8,8.336-2.372,12.508-4.255c8.392-3.754,16.374-8.705,24.22-11.412c1.968-0.672,3.951-1.195,5.932-1.477
							c1.957-0.305,3.955-0.297,5.679-0.112c0.985,0.131,2.091,0.425,2.923,0.665c0.533,0.172,0.987,0.319,1.355,0.438
							c0.529,0.179,0.811,0.274,0.811,0.274c4.388,1.481,6.744,6.239,5.262,10.626c-1.481,4.387-6.238,6.743-10.626,5.262
							c-0.578-0.195-1.122-0.448-1.625-0.749L1141.401,560.052z"/><path fill="#5c4c42" d="M1153.408,538.892c0,0,0.325-0.254,0.893-0.7c0.314-0.251,0.696-0.556,1.134-0.906
							c0.54-0.437,1.163-0.956,1.813-1.42c1.258-0.84,2.75-1.742,4.291-2.452c1.537-0.744,3.113-1.342,4.465-1.893
							c1.368-0.56,2.549-1.109,3.558-1.86c0.495-0.376,0.959-0.799,1.344-1.27c0.442-0.442,0.703-0.979,1.045-1.447
							c0.547-0.997,0.976-1.926,1.185-2.599c0.241-0.679,0.379-1.067,0.379-1.067s0.096,0.402,0.265,1.105
							c0.197,0.714,0.357,1.748,0.457,3.08c-0.026,0.657,0.051,1.414-0.094,2.205c-0.086,0.81-0.279,1.658-0.576,2.541
							c-0.591,1.753-1.633,3.496-2.665,4.993c-1.044,1.515-2.002,2.818-2.709,4.015c-0.742,1.188-1.203,2.254-1.565,3.147
							c-0.137,0.423-0.19,0.757-0.273,1.055c-0.034,0.208-0.267,0.811-0.356,1.095c-0.234,0.683-0.368,1.073-0.368,1.073
							c-1.4,4.087-5.848,6.266-9.936,4.866c-4.087-1.4-6.266-5.849-4.866-9.936C1151.34,541.027,1152.253,539.794,1153.408,538.892z
							"/></g></g><g><path fill="#d9d9d9" d="M2364.87 262.181c6.504-.981 14.232-1.719 22.695-1.719 15.335 0 26.257 3.558 33.493 10.306 7.36 6.748 11.654 16.317 11.654 29.689 0 13.494-4.17 24.536-11.898 32.142-7.731 7.729-20.488 11.899-36.559 11.899-7.608 0-13.988-.368-19.385-.981V262.181zM2375.544 335.298c2.698.491 6.624.613 10.797.613 22.816 0 35.208-12.759 35.208-35.086.124-19.507-10.918-31.898-33.493-31.898-5.521 0-9.691.492-12.513 1.105V335.298zM2457.233 261.076v82.687h-10.674v-82.687H2457.233zM2474.404 330.758c4.785 2.944 11.777 5.399 19.137 5.399 10.918 0 17.299-5.767 17.299-14.108 0-7.729-4.417-12.147-15.58-16.44-13.496-4.783-21.836-11.777-21.836-23.431 0-12.882 10.671-22.451 26.742-22.451 8.467 0 14.6 1.963 18.281 4.049l-2.946 8.709c-2.699-1.471-8.219-3.926-15.703-3.926-11.286 0-15.58 6.748-15.58 12.391 0 7.729 5.03 11.531 16.439 15.949 13.984 5.397 21.1 12.145 21.1 24.29 0 12.759-9.446 23.801-28.952 23.801-7.975 0-16.683-2.331-21.1-5.275L2474.404 330.758zM2547.021 261.076v34.596h39.994v-34.596h10.798v82.687h-10.798v-38.766h-39.994v38.766h-10.674v-82.687H2547.021z"/></g></g></switch></svg>